<?xml version="1.0" encoding="UTF-8"?>
<svg version="1.1" xmlns="http://www.w3.org/2000/svg" width="500" height="500">
<path d="M0 0 C165 0 330 0 500 0 C500 165 500 330 500 500 C335 500 170 500 0 500 C0 335 0 170 0 0 Z " fill="#FEFEFE" transform="translate(0,0)"/>
<path d="M0 0 C26.93933432 -0.04682999 53.8786625 -0.08204259 80.8180294 -0.10362434 C93.32791891 -0.11391382 105.83778304 -0.12792939 118.34765625 -0.15087891 C129.25794417 -0.17088433 140.16821371 -0.18373334 151.07851946 -0.18817699 C156.84933985 -0.1907723 162.62010766 -0.19682335 168.3909111 -0.21146011 C173.83601343 -0.22515731 179.28104213 -0.22919841 184.72616005 -0.22621536 C186.71172424 -0.22676015 188.6972912 -0.2306646 190.68284035 -0.23841095 C217.69514835 -0.33851871 247.21650405 1.67960214 268 21 C268.69351562 21.59167969 269.38703125 22.18335937 270.1015625 22.79296875 C279.3848744 31.19812952 284.85094526 43.05793249 288 55 C288.29777344 56.02222656 288.59554688 57.04445312 288.90234375 58.09765625 C295.13375221 83.10943859 292.84923059 114.94072171 279.7109375 137.44921875 C267.50390558 155.64828688 249.937877 162.59917883 230 169 C230.41660889 169.54188965 230.83321777 170.0837793 231.26245117 170.64208984 C238.56681273 180.15488651 245.83731138 189.67970745 252.8125 199.4375 C260.38334318 210.00443449 268.18033574 220.27486678 277.02734375 229.81640625 C279 232 279 232 280.9375 234.50390625 C288.73133554 243.93621858 300.58365774 251.68715959 312 256 C312 256.33 312 256.66 312 257 C299.6741756 257.37167578 287.3496951 257.65547371 275.01939678 257.82899475 C269.29272984 257.91230731 263.56991073 258.02515633 257.84545898 258.20703125 C252.31430026 258.3816532 246.78682559 258.47669208 241.25312233 258.51803589 C239.14877102 258.54746997 237.04460895 258.60496163 234.94183922 258.69168091 C218.89662022 259.3267171 218.89662022 259.3267171 214.04818916 255.43220329 C210.6339875 251.64066731 208.20823175 247.42841711 205.95826721 242.87139702 C204.70756915 240.42891272 203.1614781 238.27910524 201.50390625 236.09765625 C201.01470703 235.42476562 200.52550781 234.751875 200.02148438 234.05859375 C199.54001953 233.39988281 199.05855469 232.74117187 198.5625 232.0625 C194.33100541 226.23850744 190.1395449 220.38970756 186 214.5 C181.87622425 208.63502915 177.70685618 202.80566138 173.5 197 C168.78959343 190.49941517 164.13702392 183.9613612 159.51953125 177.39453125 C155.35112167 171.47560846 151.11449343 165.60777429 146.86645508 159.74584961 C142.59419311 153.84258165 138.38090744 147.89959272 134.19433594 141.93530273 C130.65226829 136.89627561 127.02757665 131.92898924 123.328125 127.00390625 C122 125 122 125 122 123 C122.92326584 122.99857498 123.84653168 122.99714996 124.79777527 122.99568176 C133.55008026 122.97776304 142.30188546 122.93588851 151.05395031 122.86790943 C155.55222775 122.83379368 160.05017112 122.80855366 164.54858398 122.80444336 C168.89963948 122.80012703 173.24994336 122.77139199 177.60076332 122.72656822 C179.25067051 122.71369877 180.90066815 122.70924758 182.55061913 122.71384621 C194.68454769 122.73975914 206.49818562 121.48270392 216.50390625 113.72265625 C223.57872842 105.57645109 225.21534545 96.25531327 225.3125 85.9375 C225.34150391 84.93783203 225.37050781 83.93816406 225.40039062 82.90820312 C225.47494793 74.08176522 223.22864329 65.66675152 217.70703125 58.59375 C204.44696888 46.21364601 182.70470629 47.54020553 165.875 47.48828125 C163.79035411 47.47139561 161.70571816 47.4532403 159.62109375 47.43388367 C154.18960682 47.38679897 148.75816019 47.35672282 143.32653809 47.33044434 C137.76188194 47.30042693 132.1973642 47.25397054 126.6328125 47.20898438 C115.75528137 47.123425 104.87772137 47.05587148 94 47 C94.06072554 68.85445733 94.13835896 90.70879766 94.23571491 112.5631237 C94.28053911 122.71215649 94.31998405 132.86115523 94.34643555 143.01025391 C94.36952456 151.86383603 94.40304264 160.7173092 94.44870156 169.57080472 C94.47248783 174.25173652 94.49131163 178.93256139 94.49761391 183.61355209 C94.50373161 188.03443181 94.52396721 192.45503844 94.55427551 196.87581635 C94.56295009 198.48401862 94.56680079 200.09225674 94.56500816 201.70048141 C94.55860686 210.10572492 94.97757583 218.28927426 96.27702332 226.60305786 C96.38468625 227.32655611 96.49234919 228.05005436 96.60327464 228.79547679 C98.01174493 236.92196124 101.26399091 243.14850191 107.640625 248.3984375 C111.08934327 250.73945487 114.73821252 252.36854199 118.58203125 253.95703125 C121 255 121 255 124 257 C83.08 257 42.16 257 0 257 C2.41962883 254.58037117 4.56704977 253.8680925 7.75 252.625 C17.00112687 248.79428279 21.76646012 245.16193196 26 236 C29.34965247 225.20444902 29.42498986 214.58286572 29.37231445 203.40332031 C29.37474801 201.57513726 29.37847278 199.74695556 29.38337708 197.91877747 C29.3927098 192.99546596 29.38342672 188.0723559 29.37004495 183.14906025 C29.3586531 177.97679461 29.36284372 172.80453778 29.36479187 167.63226318 C29.3656721 158.95419051 29.35464876 150.27619635 29.33618164 141.59814453 C29.31499152 131.58352271 29.31151148 121.5690156 29.3177436 111.55437589 C29.32344828 101.89012475 29.31778029 92.22591375 29.30657005 82.5616684 C29.30194142 78.46144616 29.30104263 74.36124861 29.3031559 70.26102448 C29.30504682 65.43131535 29.29687336 60.60172212 29.2810955 55.77203941 C29.27687305 54.00564491 29.27598828 52.2392386 29.27878571 50.47284126 C29.30536445 37.61547909 29.30536445 37.61547909 27 25 C26.77782964 24.17606876 26.55565928 23.35213753 26.32675648 22.50323868 C24.36397319 15.58485869 21.09778887 11.03310464 14.8125 7.375 C10.02359584 4.88380238 5.05257564 2.88812326 0 1 C0 0.67 0 0.34 0 0 Z " fill="#010101" transform="translate(99,88)"/>
<path d="M0 0 C1.98 0 3.96 0 6 0 C9.53152229 7.89498973 12.4656042 15.96292951 15.3125 24.125 C15.67408203 25.1569751 16.03566406 26.1889502 16.40820312 27.25219727 C16.74400391 28.22342529 17.07980469 29.19465332 17.42578125 30.1953125 C17.88078003 31.51039795 17.88078003 31.51039795 18.3449707 32.85205078 C19 35 19 35 19 37 C17.35 37 15.7 37 14 37 C13.01 34.03 12.02 31.06 11 28 C5.72 27.67 0.44 27.34 -5 27 C-5.99 30.3 -6.98 33.6 -8 37 C-9.32 37 -10.64 37 -12 37 C-10.45487455 28.83925122 -7.71956431 21.2239257 -4.875 13.4375 C-4.40183891 12.12973984 -3.92917879 10.8217983 -3.45703125 9.51367188 C-2.3095861 6.34063479 -1.15712972 3.16951538 0 0 Z " fill="#131313" transform="translate(239,154)"/>
<path d="M0 0 C1.32 0 2.64 0 4 0 C4 11.88 4 23.76 4 36 C2.68 36 1.36 36 0 36 C0 24.12 0 12.24 0 0 Z " fill="#020202" transform="translate(265,155)"/>
<path d="M0 0 C0.66 0 1.32 0 2 0 C2.84124316 2.24732102 3.67314832 4.49738785 4.5 6.75 C4.73847656 7.38421875 4.97695312 8.0184375 5.22265625 8.671875 C6.44801758 12.03286607 7 14.36871587 7 18 C3.04 18 -0.92 18 -5 18 C-3.72520789 11.8221613 -2.1079151 5.94432058 0 0 Z " fill="#EDEDED" transform="translate(241,159)"/>
</svg>
